<svg width="40" height="32" viewBox="0 0 40 32" fill="none" xmlns="http://www.w3.org/2000/svg">
<path d="M13.2632 14.9211H3.49816C3.80628 12.8691 4.53897 10.9041 5.64943 9.1513C6.75988 7.39855 8.2237 5.89666 9.94737 4.74158L12.915 2.7521L11.0913 0L8.12368 1.98947C5.6257 3.65413 3.57725 5.90966 2.16012 8.55593C0.742996 11.2022 0.00100649 14.1574 0 17.1592V28.1842C0 29.0636 0.349341 29.907 0.971172 30.5288C1.593 31.1507 2.43639 31.5 3.31579 31.5H13.2632C14.1426 31.5 14.9859 31.1507 15.6078 30.5288C16.2296 29.907 16.5789 29.0636 16.5789 28.1842V18.2368C16.5789 17.3574 16.2296 16.5141 15.6078 15.8922C14.9859 15.2704 14.1426 14.9211 13.2632 14.9211ZM36.4737 14.9211H26.7087C27.0168 12.8691 27.7495 10.9041 28.86 9.1513C29.9704 7.39855 31.4342 5.89666 33.1579 4.74158L36.1255 2.7521L34.3184 0L31.3342 1.98947C28.8362 3.65413 26.7878 5.90966 25.3707 8.55593C23.9535 11.2022 23.2115 14.1574 23.2105 17.1592V28.1842C23.2105 29.0636 23.5599 29.907 24.1817 30.5288C24.8035 31.1507 25.6469 31.5 26.5263 31.5H36.4737C37.3531 31.5 38.1965 31.1507 38.8183 30.5288C39.4401 29.907 39.7895 29.0636 39.7895 28.1842V18.2368C39.7895 17.3574 39.4401 16.5141 38.8183 15.8922C38.1965 15.2704 37.3531 14.9211 36.4737 14.9211Z" fill="#1F2B38"/>
</svg>
